<mxfile host="app.diagrams.net" agent="Mozilla/5.0 (Windows NT 10.0; Win64; x64) AppleWebKit/537.36 (KHTML, like Gecko) Chrome/134.0.0.0 Safari/537.36" version="26.1.3">
  <diagram name="Page-1" id="A8K7zqWtlR_iGa_o7Ea6">
    <mxGraphModel dx="84" dy="580" grid="1" gridSize="10" guides="1" tooltips="1" connect="1" arrows="1" fold="1" page="1" pageScale="1" pageWidth="850" pageHeight="1100" math="0" shadow="0">
      <root>
        <mxCell id="0" />
        <mxCell id="1" parent="0" />
        <mxCell id="yXO6HTchnJNyrTTgmV7X-84" value="" style="rounded=0;whiteSpace=wrap;html=1;" vertex="1" parent="1">
          <mxGeometry x="1275" y="270" width="750" height="400" as="geometry" />
        </mxCell>
        <mxCell id="yXO6HTchnJNyrTTgmV7X-1" value="" style="shape=table;html=1;whiteSpace=wrap;startSize=0;container=1;collapsible=0;childLayout=tableLayout;columnLines=0;rowLines=0;fontSize=24;strokeColor=default;fillColor=light-dark(#FFFFFF,#071E22);fontStyle=1" vertex="1" parent="1">
          <mxGeometry x="1320" y="290" width="240" height="160" as="geometry" />
        </mxCell>
        <mxCell id="yXO6HTchnJNyrTTgmV7X-2" value="" style="shape=tableRow;horizontal=0;startSize=0;swimlaneHead=0;swimlaneBody=0;top=0;left=0;bottom=0;right=0;collapsible=0;dropTarget=0;fillColor=none;points=[[0,0.5],[1,0.5]];portConstraint=eastwest;fontSize=24;strokeColor=inherit;fontStyle=1" vertex="1" parent="yXO6HTchnJNyrTTgmV7X-1">
          <mxGeometry width="240" height="40" as="geometry" />
        </mxCell>
        <mxCell id="yXO6HTchnJNyrTTgmV7X-3" value="&lt;font style=&quot;&quot;&gt;0&lt;/font&gt;" style="shape=partialRectangle;html=1;whiteSpace=wrap;connectable=0;fillColor=none;top=0;left=0;bottom=0;right=0;overflow=hidden;fontSize=24;strokeColor=inherit;fontStyle=1;fontColor=light-dark(#000000,#FFFFFF);" vertex="1" parent="yXO6HTchnJNyrTTgmV7X-2">
          <mxGeometry width="60" height="40" as="geometry">
            <mxRectangle width="60" height="40" as="alternateBounds" />
          </mxGeometry>
        </mxCell>
        <mxCell id="yXO6HTchnJNyrTTgmV7X-4" value="0" style="shape=partialRectangle;html=1;whiteSpace=wrap;connectable=0;fillColor=none;top=0;left=0;bottom=0;right=0;overflow=hidden;fontSize=24;strokeColor=inherit;fontStyle=1" vertex="1" parent="yXO6HTchnJNyrTTgmV7X-2">
          <mxGeometry x="60" width="60" height="40" as="geometry">
            <mxRectangle width="60" height="40" as="alternateBounds" />
          </mxGeometry>
        </mxCell>
        <mxCell id="yXO6HTchnJNyrTTgmV7X-5" value="6" style="shape=partialRectangle;html=1;whiteSpace=wrap;connectable=0;fillColor=none;top=0;left=0;bottom=0;right=0;overflow=hidden;fontSize=24;strokeColor=inherit;fontStyle=1" vertex="1" parent="yXO6HTchnJNyrTTgmV7X-2">
          <mxGeometry x="120" width="60" height="40" as="geometry">
            <mxRectangle width="60" height="40" as="alternateBounds" />
          </mxGeometry>
        </mxCell>
        <mxCell id="yXO6HTchnJNyrTTgmV7X-6" value="0" style="shape=partialRectangle;html=1;whiteSpace=wrap;connectable=0;fillColor=none;top=0;left=0;bottom=0;right=0;overflow=hidden;fontSize=24;strokeColor=inherit;fontStyle=1" vertex="1" parent="yXO6HTchnJNyrTTgmV7X-2">
          <mxGeometry x="180" width="60" height="40" as="geometry">
            <mxRectangle width="60" height="40" as="alternateBounds" />
          </mxGeometry>
        </mxCell>
        <mxCell id="yXO6HTchnJNyrTTgmV7X-7" value="" style="shape=tableRow;horizontal=0;startSize=0;swimlaneHead=0;swimlaneBody=0;top=0;left=0;bottom=0;right=0;collapsible=0;dropTarget=0;fillColor=none;points=[[0,0.5],[1,0.5]];portConstraint=eastwest;fontSize=24;strokeColor=inherit;fontStyle=1" vertex="1" parent="yXO6HTchnJNyrTTgmV7X-1">
          <mxGeometry y="40" width="240" height="40" as="geometry" />
        </mxCell>
        <mxCell id="yXO6HTchnJNyrTTgmV7X-8" value="0" style="shape=partialRectangle;html=1;whiteSpace=wrap;connectable=0;fillColor=none;top=0;left=0;bottom=0;right=0;overflow=hidden;fontSize=24;strokeColor=inherit;fontStyle=1" vertex="1" parent="yXO6HTchnJNyrTTgmV7X-7">
          <mxGeometry width="60" height="40" as="geometry">
            <mxRectangle width="60" height="40" as="alternateBounds" />
          </mxGeometry>
        </mxCell>
        <mxCell id="yXO6HTchnJNyrTTgmV7X-9" value="0" style="shape=partialRectangle;html=1;whiteSpace=wrap;connectable=0;fillColor=none;top=0;left=0;bottom=0;right=0;overflow=hidden;fontSize=24;strokeColor=inherit;fontStyle=1" vertex="1" parent="yXO6HTchnJNyrTTgmV7X-7">
          <mxGeometry x="60" width="60" height="40" as="geometry">
            <mxRectangle width="60" height="40" as="alternateBounds" />
          </mxGeometry>
        </mxCell>
        <mxCell id="yXO6HTchnJNyrTTgmV7X-10" value="5" style="shape=partialRectangle;html=1;whiteSpace=wrap;connectable=0;fillColor=none;top=0;left=0;bottom=0;right=0;overflow=hidden;fontSize=24;strokeColor=inherit;fontStyle=1" vertex="1" parent="yXO6HTchnJNyrTTgmV7X-7">
          <mxGeometry x="120" width="60" height="40" as="geometry">
            <mxRectangle width="60" height="40" as="alternateBounds" />
          </mxGeometry>
        </mxCell>
        <mxCell id="yXO6HTchnJNyrTTgmV7X-11" value="0" style="shape=partialRectangle;html=1;whiteSpace=wrap;connectable=0;fillColor=none;top=0;left=0;bottom=0;right=0;overflow=hidden;fontSize=24;strokeColor=inherit;fontStyle=1" vertex="1" parent="yXO6HTchnJNyrTTgmV7X-7">
          <mxGeometry x="180" width="60" height="40" as="geometry">
            <mxRectangle width="60" height="40" as="alternateBounds" />
          </mxGeometry>
        </mxCell>
        <mxCell id="yXO6HTchnJNyrTTgmV7X-12" value="" style="shape=tableRow;horizontal=0;startSize=0;swimlaneHead=0;swimlaneBody=0;top=0;left=0;bottom=0;right=0;collapsible=0;dropTarget=0;fillColor=none;points=[[0,0.5],[1,0.5]];portConstraint=eastwest;fontSize=24;strokeColor=inherit;fontStyle=1" vertex="1" parent="yXO6HTchnJNyrTTgmV7X-1">
          <mxGeometry y="80" width="240" height="40" as="geometry" />
        </mxCell>
        <mxCell id="yXO6HTchnJNyrTTgmV7X-13" value="9" style="shape=partialRectangle;html=1;whiteSpace=wrap;connectable=0;fillColor=none;top=0;left=0;bottom=0;right=0;overflow=hidden;fontSize=24;strokeColor=inherit;fontStyle=1" vertex="1" parent="yXO6HTchnJNyrTTgmV7X-12">
          <mxGeometry width="60" height="40" as="geometry">
            <mxRectangle width="60" height="40" as="alternateBounds" />
          </mxGeometry>
        </mxCell>
        <mxCell id="yXO6HTchnJNyrTTgmV7X-14" value="5" style="shape=partialRectangle;html=1;whiteSpace=wrap;connectable=0;fillColor=none;top=0;left=0;bottom=0;right=0;overflow=hidden;fontSize=24;strokeColor=inherit;fontStyle=1" vertex="1" parent="yXO6HTchnJNyrTTgmV7X-12">
          <mxGeometry x="60" width="60" height="40" as="geometry">
            <mxRectangle width="60" height="40" as="alternateBounds" />
          </mxGeometry>
        </mxCell>
        <mxCell id="yXO6HTchnJNyrTTgmV7X-15" value="7" style="shape=partialRectangle;html=1;whiteSpace=wrap;connectable=0;fillColor=none;top=0;left=0;bottom=0;right=0;overflow=hidden;fontSize=24;strokeColor=inherit;fontStyle=1" vertex="1" parent="yXO6HTchnJNyrTTgmV7X-12">
          <mxGeometry x="120" width="60" height="40" as="geometry">
            <mxRectangle width="60" height="40" as="alternateBounds" />
          </mxGeometry>
        </mxCell>
        <mxCell id="yXO6HTchnJNyrTTgmV7X-16" value="1" style="shape=partialRectangle;html=1;whiteSpace=wrap;connectable=0;fillColor=none;top=0;left=0;bottom=0;right=0;overflow=hidden;fontSize=24;strokeColor=inherit;fontStyle=1" vertex="1" parent="yXO6HTchnJNyrTTgmV7X-12">
          <mxGeometry x="180" width="60" height="40" as="geometry">
            <mxRectangle width="60" height="40" as="alternateBounds" />
          </mxGeometry>
        </mxCell>
        <mxCell id="yXO6HTchnJNyrTTgmV7X-17" style="shape=tableRow;horizontal=0;startSize=0;swimlaneHead=0;swimlaneBody=0;top=0;left=0;bottom=0;right=0;collapsible=0;dropTarget=0;fillColor=none;points=[[0,0.5],[1,0.5]];portConstraint=eastwest;fontSize=24;strokeColor=inherit;fontStyle=1" vertex="1" parent="yXO6HTchnJNyrTTgmV7X-1">
          <mxGeometry y="120" width="240" height="40" as="geometry" />
        </mxCell>
        <mxCell id="yXO6HTchnJNyrTTgmV7X-18" value="0" style="shape=partialRectangle;html=1;whiteSpace=wrap;connectable=0;fillColor=none;top=0;left=0;bottom=0;right=0;overflow=hidden;fontSize=24;strokeColor=inherit;fontStyle=1" vertex="1" parent="yXO6HTchnJNyrTTgmV7X-17">
          <mxGeometry width="60" height="40" as="geometry">
            <mxRectangle width="60" height="40" as="alternateBounds" />
          </mxGeometry>
        </mxCell>
        <mxCell id="yXO6HTchnJNyrTTgmV7X-19" value="0" style="shape=partialRectangle;html=1;whiteSpace=wrap;connectable=0;fillColor=none;top=0;left=0;bottom=0;right=0;overflow=hidden;fontSize=24;strokeColor=inherit;fontStyle=1" vertex="1" parent="yXO6HTchnJNyrTTgmV7X-17">
          <mxGeometry x="60" width="60" height="40" as="geometry">
            <mxRectangle width="60" height="40" as="alternateBounds" />
          </mxGeometry>
        </mxCell>
        <mxCell id="yXO6HTchnJNyrTTgmV7X-20" value="4" style="shape=partialRectangle;html=1;whiteSpace=wrap;connectable=0;fillColor=none;top=0;left=0;bottom=0;right=0;overflow=hidden;fontSize=24;strokeColor=inherit;fontStyle=1" vertex="1" parent="yXO6HTchnJNyrTTgmV7X-17">
          <mxGeometry x="120" width="60" height="40" as="geometry">
            <mxRectangle width="60" height="40" as="alternateBounds" />
          </mxGeometry>
        </mxCell>
        <mxCell id="yXO6HTchnJNyrTTgmV7X-21" value="&lt;font style=&quot;&quot;&gt;4&lt;/font&gt;" style="shape=partialRectangle;html=1;whiteSpace=wrap;connectable=0;fillColor=none;top=0;left=0;bottom=0;right=0;overflow=hidden;fontSize=24;strokeColor=inherit;fontStyle=1;fontColor=light-dark(#000000,#FFFFFF);" vertex="1" parent="yXO6HTchnJNyrTTgmV7X-17">
          <mxGeometry x="180" width="60" height="40" as="geometry">
            <mxRectangle width="60" height="40" as="alternateBounds" />
          </mxGeometry>
        </mxCell>
        <mxCell id="yXO6HTchnJNyrTTgmV7X-23" value="" style="shape=table;html=1;whiteSpace=wrap;startSize=0;container=1;collapsible=0;childLayout=tableLayout;columnLines=0;rowLines=0;fontSize=24;strokeColor=default;fillColor=light-dark(#FFFFFF,#071E22);fontStyle=1" vertex="1" parent="1">
          <mxGeometry x="1800" y="310" width="180" height="120" as="geometry" />
        </mxCell>
        <mxCell id="yXO6HTchnJNyrTTgmV7X-24" value="" style="shape=tableRow;horizontal=0;startSize=0;swimlaneHead=0;swimlaneBody=0;top=0;left=0;bottom=0;right=0;collapsible=0;dropTarget=0;fillColor=none;points=[[0,0.5],[1,0.5]];portConstraint=eastwest;fontSize=24;strokeColor=inherit;fontStyle=1" vertex="1" parent="yXO6HTchnJNyrTTgmV7X-23">
          <mxGeometry width="180" height="40" as="geometry" />
        </mxCell>
        <mxCell id="yXO6HTchnJNyrTTgmV7X-25" value="&lt;font style=&quot;&quot;&gt;0&lt;/font&gt;" style="shape=partialRectangle;html=1;whiteSpace=wrap;connectable=0;fillColor=none;top=0;left=0;bottom=0;right=0;overflow=hidden;fontSize=24;strokeColor=inherit;fontStyle=1;fontColor=light-dark(#000000,#FFFFFF);" vertex="1" parent="yXO6HTchnJNyrTTgmV7X-24">
          <mxGeometry width="60" height="40" as="geometry">
            <mxRectangle width="60" height="40" as="alternateBounds" />
          </mxGeometry>
        </mxCell>
        <mxCell id="yXO6HTchnJNyrTTgmV7X-26" value="6" style="shape=partialRectangle;html=1;whiteSpace=wrap;connectable=0;fillColor=none;top=0;left=0;bottom=0;right=0;overflow=hidden;fontSize=24;strokeColor=inherit;fontStyle=1" vertex="1" parent="yXO6HTchnJNyrTTgmV7X-24">
          <mxGeometry x="60" width="60" height="40" as="geometry">
            <mxRectangle width="60" height="40" as="alternateBounds" />
          </mxGeometry>
        </mxCell>
        <mxCell id="yXO6HTchnJNyrTTgmV7X-27" value="6" style="shape=partialRectangle;html=1;whiteSpace=wrap;connectable=0;fillColor=none;top=0;left=0;bottom=0;right=0;overflow=hidden;fontSize=24;strokeColor=inherit;fontStyle=1" vertex="1" parent="yXO6HTchnJNyrTTgmV7X-24">
          <mxGeometry x="120" width="60" height="40" as="geometry">
            <mxRectangle width="60" height="40" as="alternateBounds" />
          </mxGeometry>
        </mxCell>
        <mxCell id="yXO6HTchnJNyrTTgmV7X-29" value="" style="shape=tableRow;horizontal=0;startSize=0;swimlaneHead=0;swimlaneBody=0;top=0;left=0;bottom=0;right=0;collapsible=0;dropTarget=0;fillColor=none;points=[[0,0.5],[1,0.5]];portConstraint=eastwest;fontSize=24;strokeColor=inherit;fontStyle=1" vertex="1" parent="yXO6HTchnJNyrTTgmV7X-23">
          <mxGeometry y="40" width="180" height="40" as="geometry" />
        </mxCell>
        <mxCell id="yXO6HTchnJNyrTTgmV7X-30" value="9" style="shape=partialRectangle;html=1;whiteSpace=wrap;connectable=0;fillColor=none;top=0;left=0;bottom=0;right=0;overflow=hidden;fontSize=24;strokeColor=inherit;fontStyle=1" vertex="1" parent="yXO6HTchnJNyrTTgmV7X-29">
          <mxGeometry width="60" height="40" as="geometry">
            <mxRectangle width="60" height="40" as="alternateBounds" />
          </mxGeometry>
        </mxCell>
        <mxCell id="yXO6HTchnJNyrTTgmV7X-31" value="7" style="shape=partialRectangle;html=1;whiteSpace=wrap;connectable=0;fillColor=none;top=0;left=0;bottom=0;right=0;overflow=hidden;fontSize=24;strokeColor=inherit;fontStyle=1" vertex="1" parent="yXO6HTchnJNyrTTgmV7X-29">
          <mxGeometry x="60" width="60" height="40" as="geometry">
            <mxRectangle width="60" height="40" as="alternateBounds" />
          </mxGeometry>
        </mxCell>
        <mxCell id="yXO6HTchnJNyrTTgmV7X-32" value="7" style="shape=partialRectangle;html=1;whiteSpace=wrap;connectable=0;fillColor=none;top=0;left=0;bottom=0;right=0;overflow=hidden;fontSize=24;strokeColor=inherit;fontStyle=1" vertex="1" parent="yXO6HTchnJNyrTTgmV7X-29">
          <mxGeometry x="120" width="60" height="40" as="geometry">
            <mxRectangle width="60" height="40" as="alternateBounds" />
          </mxGeometry>
        </mxCell>
        <mxCell id="yXO6HTchnJNyrTTgmV7X-34" value="" style="shape=tableRow;horizontal=0;startSize=0;swimlaneHead=0;swimlaneBody=0;top=0;left=0;bottom=0;right=0;collapsible=0;dropTarget=0;fillColor=none;points=[[0,0.5],[1,0.5]];portConstraint=eastwest;fontSize=24;strokeColor=inherit;fontStyle=1" vertex="1" parent="yXO6HTchnJNyrTTgmV7X-23">
          <mxGeometry y="80" width="180" height="40" as="geometry" />
        </mxCell>
        <mxCell id="yXO6HTchnJNyrTTgmV7X-35" value="9" style="shape=partialRectangle;html=1;whiteSpace=wrap;connectable=0;fillColor=none;top=0;left=0;bottom=0;right=0;overflow=hidden;fontSize=24;strokeColor=inherit;fontStyle=1" vertex="1" parent="yXO6HTchnJNyrTTgmV7X-34">
          <mxGeometry width="60" height="40" as="geometry">
            <mxRectangle width="60" height="40" as="alternateBounds" />
          </mxGeometry>
        </mxCell>
        <mxCell id="yXO6HTchnJNyrTTgmV7X-36" value="7" style="shape=partialRectangle;html=1;whiteSpace=wrap;connectable=0;fillColor=none;top=0;left=0;bottom=0;right=0;overflow=hidden;fontSize=24;strokeColor=inherit;fontStyle=1" vertex="1" parent="yXO6HTchnJNyrTTgmV7X-34">
          <mxGeometry x="60" width="60" height="40" as="geometry">
            <mxRectangle width="60" height="40" as="alternateBounds" />
          </mxGeometry>
        </mxCell>
        <mxCell id="yXO6HTchnJNyrTTgmV7X-37" value="7" style="shape=partialRectangle;html=1;whiteSpace=wrap;connectable=0;fillColor=none;top=0;left=0;bottom=0;right=0;overflow=hidden;fontSize=24;strokeColor=inherit;fontStyle=1" vertex="1" parent="yXO6HTchnJNyrTTgmV7X-34">
          <mxGeometry x="120" width="60" height="40" as="geometry">
            <mxRectangle width="60" height="40" as="alternateBounds" />
          </mxGeometry>
        </mxCell>
        <mxCell id="yXO6HTchnJNyrTTgmV7X-44" value="" style="shape=table;html=1;whiteSpace=wrap;startSize=0;container=1;collapsible=0;childLayout=tableLayout;columnLines=0;rowLines=0;fontSize=24;strokeColor=default;fillColor=light-dark(#FFFFFF,#071E22);fontStyle=1" vertex="1" parent="1">
          <mxGeometry x="1320" y="490" width="240" height="160" as="geometry" />
        </mxCell>
        <mxCell id="yXO6HTchnJNyrTTgmV7X-45" value="" style="shape=tableRow;horizontal=0;startSize=0;swimlaneHead=0;swimlaneBody=0;top=0;left=0;bottom=0;right=0;collapsible=0;dropTarget=0;fillColor=none;points=[[0,0.5],[1,0.5]];portConstraint=eastwest;fontSize=24;strokeColor=inherit;fontStyle=1" vertex="1" parent="yXO6HTchnJNyrTTgmV7X-44">
          <mxGeometry width="240" height="40" as="geometry" />
        </mxCell>
        <mxCell id="yXO6HTchnJNyrTTgmV7X-46" value="&lt;font style=&quot;&quot;&gt;0&lt;/font&gt;" style="shape=partialRectangle;html=1;whiteSpace=wrap;connectable=0;fillColor=none;top=0;left=0;bottom=0;right=0;overflow=hidden;fontSize=24;strokeColor=inherit;fontStyle=1;fontColor=light-dark(#000000,#FFFFFF);" vertex="1" parent="yXO6HTchnJNyrTTgmV7X-45">
          <mxGeometry width="60" height="40" as="geometry">
            <mxRectangle width="60" height="40" as="alternateBounds" />
          </mxGeometry>
        </mxCell>
        <mxCell id="yXO6HTchnJNyrTTgmV7X-47" value="0" style="shape=partialRectangle;html=1;whiteSpace=wrap;connectable=0;fillColor=none;top=0;left=0;bottom=0;right=0;overflow=hidden;fontSize=24;strokeColor=inherit;fontStyle=1" vertex="1" parent="yXO6HTchnJNyrTTgmV7X-45">
          <mxGeometry x="60" width="60" height="40" as="geometry">
            <mxRectangle width="60" height="40" as="alternateBounds" />
          </mxGeometry>
        </mxCell>
        <mxCell id="yXO6HTchnJNyrTTgmV7X-48" value="6" style="shape=partialRectangle;html=1;whiteSpace=wrap;connectable=0;fillColor=none;top=0;left=0;bottom=0;right=0;overflow=hidden;fontSize=24;strokeColor=inherit;fontStyle=1" vertex="1" parent="yXO6HTchnJNyrTTgmV7X-45">
          <mxGeometry x="120" width="60" height="40" as="geometry">
            <mxRectangle width="60" height="40" as="alternateBounds" />
          </mxGeometry>
        </mxCell>
        <mxCell id="yXO6HTchnJNyrTTgmV7X-49" value="0" style="shape=partialRectangle;html=1;whiteSpace=wrap;connectable=0;fillColor=none;top=0;left=0;bottom=0;right=0;overflow=hidden;fontSize=24;strokeColor=inherit;fontStyle=1" vertex="1" parent="yXO6HTchnJNyrTTgmV7X-45">
          <mxGeometry x="180" width="60" height="40" as="geometry">
            <mxRectangle width="60" height="40" as="alternateBounds" />
          </mxGeometry>
        </mxCell>
        <mxCell id="yXO6HTchnJNyrTTgmV7X-50" value="" style="shape=tableRow;horizontal=0;startSize=0;swimlaneHead=0;swimlaneBody=0;top=0;left=0;bottom=0;right=0;collapsible=0;dropTarget=0;fillColor=none;points=[[0,0.5],[1,0.5]];portConstraint=eastwest;fontSize=24;strokeColor=inherit;fontStyle=1" vertex="1" parent="yXO6HTchnJNyrTTgmV7X-44">
          <mxGeometry y="40" width="240" height="40" as="geometry" />
        </mxCell>
        <mxCell id="yXO6HTchnJNyrTTgmV7X-51" value="0" style="shape=partialRectangle;html=1;whiteSpace=wrap;connectable=0;fillColor=none;top=0;left=0;bottom=0;right=0;overflow=hidden;fontSize=24;strokeColor=inherit;fontStyle=1" vertex="1" parent="yXO6HTchnJNyrTTgmV7X-50">
          <mxGeometry width="60" height="40" as="geometry">
            <mxRectangle width="60" height="40" as="alternateBounds" />
          </mxGeometry>
        </mxCell>
        <mxCell id="yXO6HTchnJNyrTTgmV7X-52" value="0" style="shape=partialRectangle;html=1;whiteSpace=wrap;connectable=0;fillColor=none;top=0;left=0;bottom=0;right=0;overflow=hidden;fontSize=24;strokeColor=inherit;fontStyle=1" vertex="1" parent="yXO6HTchnJNyrTTgmV7X-50">
          <mxGeometry x="60" width="60" height="40" as="geometry">
            <mxRectangle width="60" height="40" as="alternateBounds" />
          </mxGeometry>
        </mxCell>
        <mxCell id="yXO6HTchnJNyrTTgmV7X-53" value="5" style="shape=partialRectangle;html=1;whiteSpace=wrap;connectable=0;fillColor=none;top=0;left=0;bottom=0;right=0;overflow=hidden;fontSize=24;strokeColor=inherit;fontStyle=1" vertex="1" parent="yXO6HTchnJNyrTTgmV7X-50">
          <mxGeometry x="120" width="60" height="40" as="geometry">
            <mxRectangle width="60" height="40" as="alternateBounds" />
          </mxGeometry>
        </mxCell>
        <mxCell id="yXO6HTchnJNyrTTgmV7X-54" value="0" style="shape=partialRectangle;html=1;whiteSpace=wrap;connectable=0;fillColor=none;top=0;left=0;bottom=0;right=0;overflow=hidden;fontSize=24;strokeColor=inherit;fontStyle=1" vertex="1" parent="yXO6HTchnJNyrTTgmV7X-50">
          <mxGeometry x="180" width="60" height="40" as="geometry">
            <mxRectangle width="60" height="40" as="alternateBounds" />
          </mxGeometry>
        </mxCell>
        <mxCell id="yXO6HTchnJNyrTTgmV7X-55" value="" style="shape=tableRow;horizontal=0;startSize=0;swimlaneHead=0;swimlaneBody=0;top=0;left=0;bottom=0;right=0;collapsible=0;dropTarget=0;fillColor=none;points=[[0,0.5],[1,0.5]];portConstraint=eastwest;fontSize=24;strokeColor=inherit;fontStyle=1" vertex="1" parent="yXO6HTchnJNyrTTgmV7X-44">
          <mxGeometry y="80" width="240" height="40" as="geometry" />
        </mxCell>
        <mxCell id="yXO6HTchnJNyrTTgmV7X-56" value="9" style="shape=partialRectangle;html=1;whiteSpace=wrap;connectable=0;fillColor=none;top=0;left=0;bottom=0;right=0;overflow=hidden;fontSize=24;strokeColor=inherit;fontStyle=1" vertex="1" parent="yXO6HTchnJNyrTTgmV7X-55">
          <mxGeometry width="60" height="40" as="geometry">
            <mxRectangle width="60" height="40" as="alternateBounds" />
          </mxGeometry>
        </mxCell>
        <mxCell id="yXO6HTchnJNyrTTgmV7X-57" value="5" style="shape=partialRectangle;html=1;whiteSpace=wrap;connectable=0;fillColor=none;top=0;left=0;bottom=0;right=0;overflow=hidden;fontSize=24;strokeColor=inherit;fontStyle=1" vertex="1" parent="yXO6HTchnJNyrTTgmV7X-55">
          <mxGeometry x="60" width="60" height="40" as="geometry">
            <mxRectangle width="60" height="40" as="alternateBounds" />
          </mxGeometry>
        </mxCell>
        <mxCell id="yXO6HTchnJNyrTTgmV7X-58" value="7" style="shape=partialRectangle;html=1;whiteSpace=wrap;connectable=0;fillColor=none;top=0;left=0;bottom=0;right=0;overflow=hidden;fontSize=24;strokeColor=inherit;fontStyle=1" vertex="1" parent="yXO6HTchnJNyrTTgmV7X-55">
          <mxGeometry x="120" width="60" height="40" as="geometry">
            <mxRectangle width="60" height="40" as="alternateBounds" />
          </mxGeometry>
        </mxCell>
        <mxCell id="yXO6HTchnJNyrTTgmV7X-59" value="1" style="shape=partialRectangle;html=1;whiteSpace=wrap;connectable=0;fillColor=none;top=0;left=0;bottom=0;right=0;overflow=hidden;fontSize=24;strokeColor=inherit;fontStyle=1" vertex="1" parent="yXO6HTchnJNyrTTgmV7X-55">
          <mxGeometry x="180" width="60" height="40" as="geometry">
            <mxRectangle width="60" height="40" as="alternateBounds" />
          </mxGeometry>
        </mxCell>
        <mxCell id="yXO6HTchnJNyrTTgmV7X-60" style="shape=tableRow;horizontal=0;startSize=0;swimlaneHead=0;swimlaneBody=0;top=0;left=0;bottom=0;right=0;collapsible=0;dropTarget=0;fillColor=none;points=[[0,0.5],[1,0.5]];portConstraint=eastwest;fontSize=24;strokeColor=inherit;fontStyle=1" vertex="1" parent="yXO6HTchnJNyrTTgmV7X-44">
          <mxGeometry y="120" width="240" height="40" as="geometry" />
        </mxCell>
        <mxCell id="yXO6HTchnJNyrTTgmV7X-61" value="0" style="shape=partialRectangle;html=1;whiteSpace=wrap;connectable=0;fillColor=none;top=0;left=0;bottom=0;right=0;overflow=hidden;fontSize=24;strokeColor=inherit;fontStyle=1" vertex="1" parent="yXO6HTchnJNyrTTgmV7X-60">
          <mxGeometry width="60" height="40" as="geometry">
            <mxRectangle width="60" height="40" as="alternateBounds" />
          </mxGeometry>
        </mxCell>
        <mxCell id="yXO6HTchnJNyrTTgmV7X-62" value="0" style="shape=partialRectangle;html=1;whiteSpace=wrap;connectable=0;fillColor=none;top=0;left=0;bottom=0;right=0;overflow=hidden;fontSize=24;strokeColor=inherit;fontStyle=1" vertex="1" parent="yXO6HTchnJNyrTTgmV7X-60">
          <mxGeometry x="60" width="60" height="40" as="geometry">
            <mxRectangle width="60" height="40" as="alternateBounds" />
          </mxGeometry>
        </mxCell>
        <mxCell id="yXO6HTchnJNyrTTgmV7X-63" value="4" style="shape=partialRectangle;html=1;whiteSpace=wrap;connectable=0;fillColor=none;top=0;left=0;bottom=0;right=0;overflow=hidden;fontSize=24;strokeColor=inherit;fontStyle=1" vertex="1" parent="yXO6HTchnJNyrTTgmV7X-60">
          <mxGeometry x="120" width="60" height="40" as="geometry">
            <mxRectangle width="60" height="40" as="alternateBounds" />
          </mxGeometry>
        </mxCell>
        <mxCell id="yXO6HTchnJNyrTTgmV7X-64" value="&lt;font style=&quot;&quot;&gt;4&lt;/font&gt;" style="shape=partialRectangle;html=1;whiteSpace=wrap;connectable=0;fillColor=none;top=0;left=0;bottom=0;right=0;overflow=hidden;fontSize=24;strokeColor=inherit;fontStyle=1;fontColor=light-dark(#000000,#FFFFFF);" vertex="1" parent="yXO6HTchnJNyrTTgmV7X-60">
          <mxGeometry x="180" width="60" height="40" as="geometry">
            <mxRectangle width="60" height="40" as="alternateBounds" />
          </mxGeometry>
        </mxCell>
        <mxCell id="yXO6HTchnJNyrTTgmV7X-66" value="" style="shape=table;html=1;whiteSpace=wrap;startSize=0;container=1;collapsible=0;childLayout=tableLayout;columnLines=0;rowLines=0;fontSize=24;strokeColor=default;fillColor=light-dark(#FFFFFF,#071E22);fontStyle=1" vertex="1" parent="1">
          <mxGeometry x="1800" y="520" width="180" height="120" as="geometry" />
        </mxCell>
        <mxCell id="yXO6HTchnJNyrTTgmV7X-67" value="" style="shape=tableRow;horizontal=0;startSize=0;swimlaneHead=0;swimlaneBody=0;top=0;left=0;bottom=0;right=0;collapsible=0;dropTarget=0;fillColor=none;points=[[0,0.5],[1,0.5]];portConstraint=eastwest;fontSize=24;strokeColor=inherit;fontStyle=1" vertex="1" parent="yXO6HTchnJNyrTTgmV7X-66">
          <mxGeometry width="180" height="40" as="geometry" />
        </mxCell>
        <mxCell id="yXO6HTchnJNyrTTgmV7X-68" value="&lt;font style=&quot;&quot;&gt;0&lt;/font&gt;" style="shape=partialRectangle;html=1;whiteSpace=wrap;connectable=0;fillColor=none;top=0;left=0;bottom=0;right=0;overflow=hidden;fontSize=24;strokeColor=inherit;fontStyle=1;fontColor=light-dark(#000000,#FFFFFF);" vertex="1" parent="yXO6HTchnJNyrTTgmV7X-67">
          <mxGeometry width="60" height="40" as="geometry">
            <mxRectangle width="60" height="40" as="alternateBounds" />
          </mxGeometry>
        </mxCell>
        <mxCell id="yXO6HTchnJNyrTTgmV7X-69" value="2.75" style="shape=partialRectangle;html=1;whiteSpace=wrap;connectable=0;fillColor=none;top=0;left=0;bottom=0;right=0;overflow=hidden;fontSize=24;strokeColor=inherit;fontStyle=1" vertex="1" parent="yXO6HTchnJNyrTTgmV7X-67">
          <mxGeometry x="60" width="60" height="40" as="geometry">
            <mxRectangle width="60" height="40" as="alternateBounds" />
          </mxGeometry>
        </mxCell>
        <mxCell id="yXO6HTchnJNyrTTgmV7X-70" value="2.75" style="shape=partialRectangle;html=1;whiteSpace=wrap;connectable=0;fillColor=none;top=0;left=0;bottom=0;right=0;overflow=hidden;fontSize=24;strokeColor=inherit;fontStyle=1" vertex="1" parent="yXO6HTchnJNyrTTgmV7X-67">
          <mxGeometry x="120" width="60" height="40" as="geometry">
            <mxRectangle width="60" height="40" as="alternateBounds" />
          </mxGeometry>
        </mxCell>
        <mxCell id="yXO6HTchnJNyrTTgmV7X-71" value="" style="shape=tableRow;horizontal=0;startSize=0;swimlaneHead=0;swimlaneBody=0;top=0;left=0;bottom=0;right=0;collapsible=0;dropTarget=0;fillColor=none;points=[[0,0.5],[1,0.5]];portConstraint=eastwest;fontSize=24;strokeColor=inherit;fontStyle=1" vertex="1" parent="yXO6HTchnJNyrTTgmV7X-66">
          <mxGeometry y="40" width="180" height="40" as="geometry" />
        </mxCell>
        <mxCell id="yXO6HTchnJNyrTTgmV7X-72" value="3.5" style="shape=partialRectangle;html=1;whiteSpace=wrap;connectable=0;fillColor=none;top=0;left=0;bottom=0;right=0;overflow=hidden;fontSize=24;strokeColor=inherit;fontStyle=1" vertex="1" parent="yXO6HTchnJNyrTTgmV7X-71">
          <mxGeometry width="60" height="40" as="geometry">
            <mxRectangle width="60" height="40" as="alternateBounds" />
          </mxGeometry>
        </mxCell>
        <mxCell id="yXO6HTchnJNyrTTgmV7X-73" value="4.25" style="shape=partialRectangle;html=1;whiteSpace=wrap;connectable=0;fillColor=none;top=0;left=0;bottom=0;right=0;overflow=hidden;fontSize=24;strokeColor=inherit;fontStyle=1" vertex="1" parent="yXO6HTchnJNyrTTgmV7X-71">
          <mxGeometry x="60" width="60" height="40" as="geometry">
            <mxRectangle width="60" height="40" as="alternateBounds" />
          </mxGeometry>
        </mxCell>
        <mxCell id="yXO6HTchnJNyrTTgmV7X-74" value="3.25" style="shape=partialRectangle;html=1;whiteSpace=wrap;connectable=0;fillColor=none;top=0;left=0;bottom=0;right=0;overflow=hidden;fontSize=24;strokeColor=inherit;fontStyle=1" vertex="1" parent="yXO6HTchnJNyrTTgmV7X-71">
          <mxGeometry x="120" width="60" height="40" as="geometry">
            <mxRectangle width="60" height="40" as="alternateBounds" />
          </mxGeometry>
        </mxCell>
        <mxCell id="yXO6HTchnJNyrTTgmV7X-75" value="" style="shape=tableRow;horizontal=0;startSize=0;swimlaneHead=0;swimlaneBody=0;top=0;left=0;bottom=0;right=0;collapsible=0;dropTarget=0;fillColor=none;points=[[0,0.5],[1,0.5]];portConstraint=eastwest;fontSize=24;strokeColor=inherit;fontStyle=1" vertex="1" parent="yXO6HTchnJNyrTTgmV7X-66">
          <mxGeometry y="80" width="180" height="40" as="geometry" />
        </mxCell>
        <mxCell id="yXO6HTchnJNyrTTgmV7X-76" value="3.5" style="shape=partialRectangle;html=1;whiteSpace=wrap;connectable=0;fillColor=none;top=0;left=0;bottom=0;right=0;overflow=hidden;fontSize=24;strokeColor=inherit;fontStyle=1" vertex="1" parent="yXO6HTchnJNyrTTgmV7X-75">
          <mxGeometry width="60" height="40" as="geometry">
            <mxRectangle width="60" height="40" as="alternateBounds" />
          </mxGeometry>
        </mxCell>
        <mxCell id="yXO6HTchnJNyrTTgmV7X-77" value="4" style="shape=partialRectangle;html=1;whiteSpace=wrap;connectable=0;fillColor=none;top=0;left=0;bottom=0;right=0;overflow=hidden;fontSize=24;strokeColor=inherit;fontStyle=1" vertex="1" parent="yXO6HTchnJNyrTTgmV7X-75">
          <mxGeometry x="60" width="60" height="40" as="geometry">
            <mxRectangle width="60" height="40" as="alternateBounds" />
          </mxGeometry>
        </mxCell>
        <mxCell id="yXO6HTchnJNyrTTgmV7X-78" value="4&lt;span style=&quot;color: rgba(0, 0, 0, 0); font-family: monospace; font-size: 0px; font-weight: 400; text-align: start; text-wrap-mode: nowrap;&quot;&gt;%3CmxGraphModel%3E%3Croot%3E%3CmxCell%20id%3D%220%22%2F%3E%3CmxCell%20id%3D%221%22%20parent%3D%220%22%2F%3E%3CmxCell%20id%3D%222%22%20value%3D%22%22%20style%3D%22endArrow%3Dclassic%3Bhtml%3D1%3Brounded%3D0%3BexitX%3D0.992%3BexitY%3D1.008%3BexitDx%3D0%3BexitDy%3D0%3BexitPerimeter%3D0%3BentryX%3D0%3BentryY%3D0.008%3BentryDx%3D0%3BentryDy%3D0%3BentryPerimeter%3D0%3BfontSize%3D17%3BstrokeWidth%3D5%3B%22%20edge%3D%221%22%20parent%3D%221%22%3E%3CmxGeometry%20relative%3D%221%22%20as%3D%22geometry%22%3E%3CmxPoint%20x%3D%221138%22%20y%3D%22260%22%20as%3D%22sourcePoint%22%2F%3E%3CmxPoint%20x%3D%221330%22%20y%3D%22260%22%20as%3D%22targetPoint%22%2F%3E%3C%2FmxGeometry%3E%3C%2FmxCell%3E%3CmxCell%20id%3D%223%22%20value%3D%22%26lt%3Bfont%20style%3D%26quot%3Bfont-size%3A%2022px%3B%26quot%3B%26gt%3B%26lt%3Bb%20style%3D%26quot%3B%26quot%3B%26gt%3BReLu%26lt%3B%2Fb%26gt%3B%26lt%3B%2Ffont%26gt%3B%22%20style%3D%22edgeLabel%3Bresizable%3D0%3Bhtml%3D1%3B%3Balign%3Dcenter%3BverticalAlign%3Dmiddle%3B%22%20connectable%3D%220%22%20vertex%3D%221%22%20parent%3D%222%22%3E%3CmxGeometry%20relative%3D%221%22%20as%3D%22geometry%22%2F%3E%3C%2FmxCell%3E%3C%2Froot%3E%3C%2FmxGraphModel%3E&lt;/span&gt;" style="shape=partialRectangle;html=1;whiteSpace=wrap;connectable=0;fillColor=none;top=0;left=0;bottom=0;right=0;overflow=hidden;fontSize=24;strokeColor=inherit;fontStyle=1" vertex="1" parent="yXO6HTchnJNyrTTgmV7X-75">
          <mxGeometry x="120" width="60" height="40" as="geometry">
            <mxRectangle width="60" height="40" as="alternateBounds" />
          </mxGeometry>
        </mxCell>
        <mxCell id="yXO6HTchnJNyrTTgmV7X-79" value="" style="endArrow=classic;html=1;rounded=0;exitX=0.993;exitY=0.155;exitDx=0;exitDy=0;exitPerimeter=0;fontSize=17;strokeWidth=5;" edge="1" parent="1" source="yXO6HTchnJNyrTTgmV7X-55">
          <mxGeometry relative="1" as="geometry">
            <mxPoint x="1570" y="730" as="sourcePoint" />
            <mxPoint x="1800" y="580" as="targetPoint" />
          </mxGeometry>
        </mxCell>
        <mxCell id="yXO6HTchnJNyrTTgmV7X-80" value="&lt;font style=&quot;font-size: 22px;&quot;&gt;&lt;b style=&quot;&quot;&gt;Average Pooling&lt;/b&gt;&lt;/font&gt;" style="edgeLabel;resizable=0;html=1;;align=center;verticalAlign=middle;" connectable="0" vertex="1" parent="yXO6HTchnJNyrTTgmV7X-79">
          <mxGeometry relative="1" as="geometry" />
        </mxCell>
        <mxCell id="yXO6HTchnJNyrTTgmV7X-82" value="" style="endArrow=classic;html=1;rounded=0;exitX=0.999;exitY=1.02;exitDx=0;exitDy=0;exitPerimeter=0;fontSize=17;strokeWidth=5;" edge="1" parent="1" source="yXO6HTchnJNyrTTgmV7X-7">
          <mxGeometry relative="1" as="geometry">
            <mxPoint x="1570" y="370" as="sourcePoint" />
            <mxPoint x="1800" y="374" as="targetPoint" />
          </mxGeometry>
        </mxCell>
        <mxCell id="yXO6HTchnJNyrTTgmV7X-83" value="&lt;font style=&quot;font-size: 22px;&quot;&gt;&lt;b style=&quot;&quot;&gt;Max Pooling&lt;/b&gt;&lt;/font&gt;" style="edgeLabel;resizable=0;html=1;;align=center;verticalAlign=middle;" connectable="0" vertex="1" parent="yXO6HTchnJNyrTTgmV7X-82">
          <mxGeometry relative="1" as="geometry" />
        </mxCell>
      </root>
    </mxGraphModel>
  </diagram>
</mxfile>
